<svg xmlns="http://www.w3.org/2000/svg" viewBox="0 0 68 68">
  <rect x="4" y="4" width="64" height="64" fill="#1c2b4a" />
  <rect width="64" height="64" fill="#f7f9fc" /><path d="M8 0V64M0 8H64" stroke="#dce5f2" stroke-width="0.75" /><path d="M16 0V64M0 16H64" stroke="#dce5f2" stroke-width="0.75" /><path d="M24 0V64M0 24H64" stroke="#dce5f2" stroke-width="0.75" /><path d="M32 0V64M0 32H64" stroke="#dce5f2" stroke-width="0.75" /><path d="M40 0V64M0 40H64" stroke="#dce5f2" stroke-width="0.75" /><path d="M48 0V64M0 48H64" stroke="#dce5f2" stroke-width="0.75" /><path d="M56 0V64M0 56H64" stroke="#dce5f2" stroke-width="0.75" />
  <rect x="1.5" y="1.5" width="61" height="61" fill="none" stroke="#1c2b4a" stroke-width="3" />
  <path d="M19.05 37.88L19.05 37.88Q17.39 38.16 15.77 37.59Q14.15 37.02 13.1 35.74Q12.04 34.46 12.04 32.64L12.04 32.64Q11.87 30.93 12.36 28.57Q12.84 26.21 13.84 23.82Q14.83 21.43 16.14 19.78L16.14 19.78Q17.28 18.41 18.42 17.27Q19.56 16.13 20.47 15.74L20.47 15.74Q21.26 15.39 22.43 15.19Q23.6 15 24.05 15L24.05 15Q24.96 15.22 26.07 15.74Q27.18 16.25 27.18 16.93L27.18 16.93L27.47 17.22Q27.81 17.22 28.24 18.04Q28.66 18.87 28.89 19.92Q29.12 20.97 28.78 21.6L28.78 21.6Q28.55 22.68 27.9 23.7Q27.24 24.73 26.79 24.73L26.79 24.73Q26.56 24.73 26.36 24.76Q26.16 24.79 26.16 25.07Q26.16 25.35 25.56 25.35Q24.96 25.35 24.34 25.13Q23.71 24.9 23.54 24.44L23.54 24.44Q23.54 24.16 23.66 23.7Q23.77 23.25 24 22.17L24 22.17Q24.34 20.57 24.05 20.03Q23.77 19.49 22.63 19.95L22.63 19.95Q21.21 20.74 20.3 21.8Q19.39 22.85 18.68 24.73Q17.96 26.61 17.11 29.96L17.11 29.96Q16.77 31.27 17.02 32.01Q17.28 32.75 17.45 32.81L17.45 32.81Q18.25 33.04 19.19 32.9Q20.13 32.75 20.75 32.41L20.75 32.41Q21.66 31.96 22.37 31.42Q23.09 30.88 23.94 30.25L23.94 30.25Q24.22 30.08 24.45 29.59Q24.68 29.11 25.14 28.88L25.14 28.88Q25.59 28.2 26.3 28.17Q27.01 28.14 27.7 28.14L27.7 28.14Q28.15 28.26 28.66 28.71Q29.18 29.17 29.46 29.57L29.46 29.57Q29.57 29.85 29.52 30.02L29.52 30.02Q29.46 30.14 29.35 30.19L29.35 30.19Q29.12 30.19 29.12 30.31L29.12 30.31L29.06 30.48Q29.18 30.7 28.58 31.5Q27.98 32.3 27.07 33.21Q26.16 34.12 25.33 34.77Q24.51 35.43 24.17 35.43L24.17 35.43Q23.6 35.43 23.6 35.77L23.6 35.77Q23.6 35.88 22.77 36.34Q21.95 36.79 20.9 37.25Q19.84 37.71 19.05 37.88M30.66 50.91L30.66 50.91Q30.43 50.91 30 50.94Q29.57 50.97 29.29 50.45L29.29 50.45Q29.06 50.17 28.61 49.34Q28.15 48.52 28.44 47.04L28.44 47.04Q28.72 46.07 28.89 45.13Q29.06 44.19 29.06 43.74L29.06 43.74Q29.06 43.51 29.2 42.86Q29.35 42.2 29.35 41.92L29.35 41.92Q29.63 41.46 29.8 40.66Q29.97 39.87 29.97 39.24L29.97 39.24Q29.97 38.56 30.66 37.99L30.66 37.99Q30.66 37.53 30.86 36.85Q31.05 36.17 31.05 35.94L31.05 35.94Q31.23 35.14 31.82 33.12Q32.42 31.1 33.3 28.54Q34.19 25.98 35.04 23.53Q35.89 21.09 36.58 19.38L36.58 19.38Q37.26 17.78 37.71 16.42Q38.17 15.05 38.17 14.48L38.17 14.48Q38.17 14.26 38.28 14.11Q38.4 13.97 38.8 13.52L38.8 13.52Q39.36 12.95 40.3 13.09Q41.24 13.23 41.87 13.69L41.87 13.69Q42.32 14.43 42.52 15.02Q42.72 15.62 42.49 16.87L42.49 16.87Q42.49 17.73 42.1 18.44Q41.7 19.15 41.41 19.55L41.41 19.55Q41.13 19.95 41.19 19.95L41.19 19.95Q41.19 19.95 41.19 19.95L41.19 19.95Q43.69 18.41 45.71 18.27Q47.73 18.13 49.13 18.95Q50.52 19.78 51.26 21.2Q52 22.62 52 24.27L52 24.27Q52 24.96 51.54 26.09Q51.09 27.23 50.52 28.23Q49.95 29.22 49.61 29.57L49.61 29.57Q49.38 29.57 49.15 29.94Q48.93 30.31 48.7 30.76L48.7 30.76Q48.24 31.33 47.19 32.04Q46.14 32.75 45.06 33.18Q43.97 33.61 43.52 33.44L43.52 33.44L43.41 33.55Q43.23 33.66 43.23 33.95L43.23 33.95Q43.23 34.06 42.44 34.4Q41.64 34.75 40.56 35.03Q39.48 35.31 38.57 35.31L38.57 35.31Q37.37 35.31 36.86 34.86L36.86 34.86Q36.75 34.97 36.6 35.2Q36.46 35.43 36.46 35.6L36.46 35.6Q36.46 35.94 36.21 36.68Q35.95 37.42 35.61 38.02Q35.27 38.62 34.98 38.62L34.98 38.62L34.87 38.79Q34.75 38.96 34.98 39.24L34.98 39.24L34.98 39.87Q34.92 40.55 34.64 41.01L34.64 41.01Q34.64 41.46 34.47 42.37Q34.3 43.28 34.07 43.74L34.07 43.74Q34.07 44.42 33.87 45.08Q33.67 45.73 33.45 45.73L33.45 45.73Q33.22 45.79 33.16 46.44Q33.1 47.1 33.1 47.38L33.1 47.38Q33.05 48.8 32.19 49.86Q31.34 50.91 30.66 50.91M37.94 30.99L37.94 30.99Q38.4 30.99 39.59 30.59Q40.79 30.19 42.1 29.59Q43.41 29 44.15 28.37L44.15 28.37Q45.63 27.06 46.45 25.81Q47.28 24.56 46.31 23.02L46.31 23.02Q45.85 22.22 44.86 22.37Q43.86 22.51 42.67 23.31Q41.47 24.1 40.22 25.3L40.22 25.3Q39.54 26.04 38.97 27Q38.4 27.97 38.03 28.88Q37.66 29.79 37.6 30.36L37.6 30.36Q37.54 30.82 37.71 30.93L37.71 30.93Q37.83 30.99 37.94 30.99" fill="#c8453b" />
</svg>
